<svg width="1712" height="330" viewBox="0 0 1712 330" fill="none" xmlns="http://www.w3.org/2000/svg">
<g clip-path="url(#clip0_3453_72)">
<path d="M122.239 325.903H225.203L113.404 89.0068V317.147C113.404 322.047 117.34 325.983 122.239 325.983V325.903Z" fill="#00FF00"/>
<path d="M67.3843 0H3.93527C0.160453 0 -1.44585 4.90019 1.60613 7.14946L113.405 89.0068L73.167 3.69523C72.1229 1.44596 69.8741 0 67.3843 0Z" fill="#00FF00"/>
<path d="M431.613 83.6244L280.219 2.73103C277.087 1.04408 273.392 1.04408 270.26 2.73103L113.404 89.0066L437.075 325.983V92.7822C437.075 88.9263 434.987 85.472 431.613 83.6244Z" fill="#00FF00"/>
<path d="M525.824 326.144V89.0869H577.708V185.886H685.652V89.0869H737.535V326.144H685.652V225.891H577.708V326.144H525.824Z" fill="black"/>
<path d="M822.669 330C811.184 330 800.422 327.911 790.623 323.653C780.745 319.396 772.793 313.13 766.77 304.856C760.746 296.501 757.774 286.058 757.774 273.527C757.774 255.613 764.119 241.234 776.809 230.469C789.499 219.705 808.212 214.323 833.11 214.323H886.921V209.342C886.921 198.096 883.789 190.143 877.524 185.484C871.26 180.905 858.65 178.575 839.696 178.575C818.975 178.575 798.976 181.789 779.781 188.215V151.745C788.214 148.451 798.575 145.64 810.702 143.471C822.83 141.302 836.082 140.177 850.458 140.177C877.846 140.177 899.049 145.72 914.068 156.886C929.087 168.052 936.556 185.886 936.556 210.467V326.144H891.58L888.929 309.595C881.781 316.022 872.946 321.002 862.425 324.617C851.904 328.232 838.732 330 822.83 330H822.669ZM836.885 295.779C848.37 295.779 858.409 293.851 866.843 289.995C875.276 286.139 881.942 281.319 886.841 275.374V246.536H834.235C813.995 246.536 803.875 254.89 803.875 271.519C803.875 288.147 814.879 295.698 836.885 295.698V295.779Z" fill="black"/>
<path d="M957.358 326.144V299.233L1049.16 187.011H961.214V143.953H1114.13V175.443L1024.26 286.139H1116.86V326.064H957.439L957.358 326.144Z" fill="black"/>
<path d="M1200.95 330C1189.47 330 1178.71 327.911 1168.91 323.653C1159.03 319.396 1151.08 313.13 1145.05 304.856C1139.03 296.501 1136.06 286.058 1136.06 273.527C1136.06 255.613 1142.4 241.234 1155.09 230.469C1167.78 219.705 1186.5 214.323 1211.4 214.323H1265.21V209.342C1265.21 198.096 1262.07 190.143 1255.81 185.484C1249.55 180.905 1236.94 178.575 1217.98 178.575C1197.26 178.575 1177.26 181.789 1158.07 188.215V151.745C1166.5 148.451 1176.86 145.64 1188.99 143.471C1201.11 141.302 1214.37 140.177 1228.74 140.177C1256.13 140.177 1277.33 145.72 1292.35 156.886C1307.37 168.052 1314.84 185.886 1314.84 210.467V326.144H1269.86L1267.21 309.595C1260.07 316.022 1251.23 321.002 1240.71 324.617C1230.19 328.232 1217.02 330 1201.11 330H1200.95ZM1215.17 295.779C1226.66 295.779 1236.69 293.851 1245.13 289.995C1253.56 286.139 1260.23 281.319 1265.13 275.374V246.536H1212.52C1192.28 246.536 1182.16 254.89 1182.16 271.519C1182.16 288.147 1193.16 295.698 1215.17 295.698V295.779Z" fill="black"/>
<path d="M1400.22 330C1388.73 330 1377.97 327.911 1368.17 323.653C1358.29 319.396 1350.34 313.13 1344.32 304.856C1338.29 296.501 1335.32 286.058 1335.32 273.527C1335.32 255.613 1341.67 241.234 1354.36 230.469C1367.05 219.705 1385.76 214.323 1410.66 214.323H1464.47V209.342C1464.47 198.096 1461.34 190.143 1455.07 185.484C1448.81 180.905 1436.2 178.575 1417.24 178.575C1396.52 178.575 1376.52 181.789 1357.33 188.215V151.745C1365.76 148.451 1376.12 145.64 1388.25 143.471C1400.38 141.302 1413.63 140.177 1428.01 140.177C1455.39 140.177 1476.6 145.72 1491.61 156.886C1506.63 168.052 1514.1 185.886 1514.1 210.467V326.144H1469.13L1466.48 309.595C1459.33 316.022 1450.49 321.002 1439.97 324.617C1429.45 328.232 1416.28 330 1400.38 330H1400.22ZM1414.43 295.779C1425.92 295.779 1435.96 293.851 1444.39 289.995C1452.82 286.139 1459.49 281.319 1464.39 275.374V246.536H1411.78C1391.54 246.536 1381.42 254.89 1381.42 271.519C1381.42 288.147 1392.43 295.698 1414.43 295.698V295.779Z" fill="black"/>
<path d="M1534.99 326.144V144.033H1583.01L1585.34 162.831C1593.54 157.69 1603.74 153.03 1615.86 148.773C1627.99 144.515 1640.04 141.704 1651.76 140.097V179.299C1644.86 180.343 1637.31 181.869 1629.11 183.878C1620.92 185.966 1613.13 188.215 1605.66 190.786C1598.19 193.357 1591.93 196.008 1586.87 198.819V325.983H1534.99V326.144Z" fill="black"/>
<path d="M1693.21 143.953C1690.64 143.953 1688.15 143.471 1685.9 142.507C1683.65 141.543 1681.64 140.177 1679.95 138.49C1678.27 136.803 1676.9 134.795 1675.94 132.546C1674.97 130.297 1674.49 127.887 1674.49 125.236C1674.49 122.585 1674.97 120.175 1675.94 117.926C1676.9 115.676 1678.27 113.668 1679.95 111.981C1681.64 110.294 1683.65 108.928 1685.9 107.965C1688.15 107.001 1690.56 106.519 1693.21 106.519C1695.86 106.519 1698.27 107.001 1700.52 107.965C1702.76 108.928 1704.77 110.294 1706.46 111.981C1708.15 113.668 1709.51 115.676 1710.47 117.926C1711.44 120.175 1711.92 122.585 1711.92 125.236C1711.92 127.887 1711.44 130.297 1710.47 132.546C1709.51 134.795 1708.15 136.803 1706.46 138.49C1704.77 140.177 1702.76 141.543 1700.52 142.507C1698.27 143.471 1695.86 143.953 1693.21 143.953ZM1693.21 140.177C1696.02 140.177 1698.59 139.535 1700.84 138.249C1703.09 136.964 1704.85 135.197 1706.14 132.947C1707.42 130.698 1708.06 128.128 1708.06 125.155C1708.06 122.183 1707.42 119.693 1706.14 117.524C1704.85 115.275 1703.09 113.507 1700.84 112.222C1698.59 110.937 1696.02 110.294 1693.21 110.294C1690.4 110.294 1687.91 110.937 1685.66 112.222C1683.41 113.507 1681.64 115.275 1680.36 117.524C1679.07 119.773 1678.43 122.344 1678.43 125.155C1678.43 127.967 1679.07 130.618 1680.36 132.947C1681.64 135.197 1683.41 136.964 1685.66 138.249C1687.91 139.535 1690.4 140.177 1693.21 140.177ZM1686.06 134.956V115.194H1695.13C1697.3 115.194 1698.91 115.757 1700.03 116.881C1701.16 118.006 1701.72 119.452 1701.72 121.38C1701.72 122.906 1701.32 124.111 1700.6 125.075C1699.87 126.039 1698.75 126.762 1697.3 127.083C1697.7 127.324 1698.03 127.646 1698.19 127.967C1698.43 128.288 1698.59 128.77 1698.83 129.252L1701.16 134.956H1697.95L1695.54 129.092C1695.29 128.529 1694.97 128.208 1694.65 127.967C1694.33 127.806 1693.61 127.726 1692.64 127.726H1689.51V134.956H1686.14H1686.06ZM1689.43 125.075H1693.37C1694.89 125.075 1696.1 124.834 1697.06 124.432C1697.95 124.031 1698.43 122.986 1698.43 121.38C1698.43 120.094 1698.11 119.131 1697.54 118.649C1696.98 118.167 1696.02 117.926 1694.65 117.926H1689.51V125.075H1689.43Z" fill="black"/>
</g>
<defs>
<clipPath id="clip0_3453_72">
<rect width="1712" height="330" fill="white"/>
</clipPath>
</defs>
</svg>
